<?xml version="1.0" encoding="UTF-8" standalone="no"?><!DOCTYPE svg PUBLIC "-//W3C//DTD SVG 1.1//EN" "http://www.w3.org/Graphics/SVG/1.1/DTD/svg11.dtd"><svg width="100%" height="100%" viewBox="0 0 518 483" version="1.1" xmlns="http://www.w3.org/2000/svg" xmlns:xlink="http://www.w3.org/1999/xlink" xml:space="preserve" xmlns:serif="http://www.serif.com/" style="fill-rule:evenodd;clip-rule:evenodd;stroke-linejoin:round;stroke-miterlimit:2;"><g><g id="Land"><path d="M480.782,155.247l-14.299,-29.025l-13.659,24.33l27.958,4.695Z" style="fill:#197e3e;"/><path d="M449.48,101.648l-36.576,0.947l39.92,47.957" style="fill:#197e3e;"/><path d="M412.904,102.595l5.445,-31.959l31.131,31.012" style="fill:#4c833d;"/><path d="M418.349,70.636l-34.682,45.926l29.237,-13.967" style="fill:#193a6a;"/><path d="M392.515,112.336l10.091,18.194l26.607,-8.343l-36.698,-9.851Z" style="fill:#4c833d;"/><path d="M402.606,130.53l50.218,20.022l-23.611,-28.365l-26.607,8.343Z" style="fill:#186347;"/><path d="M392.515,112.336l20.389,-9.741l16.309,19.592" style="fill:#186347;"/><path d="M428.025,140.664l6.658,28.454l28.356,-4.872l-35.014,-23.582Z" style="fill:#53a745;"/><path d="M463.039,164.246l-10.215,-13.694l-24.799,-9.888" style="fill:#23843f;"/><path d="M464.276,198.947l-1.237,-34.701l-22.449,3.857l23.686,30.844Z" style="fill:#26873f;"/><path d="M464.276,198.947l17.36,-9.767l-18.597,-24.934l18.597,24.934" style="fill:#6aff00;"/><path d="M464.276,198.947l17.36,-9.767l0.831,48.464l-18.191,-38.697Z" style="fill:#26873f;"/><path d="M482.762,254.887l-18.388,-7.333l18.093,-9.91l0.295,17.243Z" style="fill:#2a8641;"/><path d="M464.374,247.554l-0.098,-48.607l18.191,38.697l-18.093,9.91Z" style="fill:#26873f;"/><path d="M464.276,198.947l-1.237,-34.701l18.597,24.934l-17.36,9.767Z" style="fill:#0ba031;"/><path d="M337.876,26.07l18.72,36.767l21.683,-21.01l-40.403,-15.757Z" style="fill:#0d433c;"/><path d="M378.279,41.827l5.388,74.735l-27.071,-53.725l21.683,-21.01Z" style="fill:#1d6138;"/><path d="M378.279,41.827l27.878,18.047l-24.997,21.919l-2.881,-39.966Z" style="fill:#193a6a;"/><path d="M381.16,81.793l19.318,12.508l-16.811,22.261l-2.507,-34.769Z" style="fill:#51873b;"/><path d="M381.16,81.793l37.189,-11.157l-17.871,23.665l-19.318,-12.508Z" style="fill:#0d433c;"/><path d="M406.157,59.874l12.192,10.762l-37.189,11.157l24.997,-21.919Z" style="fill:#186347;"/><path d="M356.596,62.837l-24.915,-6.33l18.933,-5.42l5.982,11.75Z" style="fill:#193a6a;"/><path d="M331.681,56.507l-0.135,25.454l25.05,-19.124l-24.915,-6.33Z" style="fill:#186347;"/><path d="M331.546,81.961l18.99,16.969l6.06,-36.093l-25.05,19.124Z" style="fill:#1d6138;"/><path d="M350.536,98.93l15.789,-16.784l-9.729,-19.309l-6.06,36.093Z" style="fill:#356045;"/><path d="M321.777,83.172l-2.235,31.834l23.721,-6.918l-21.486,-24.916Z" style="fill:#51883c;"/><path d="M350.536,98.93l-7.273,9.158l40.404,8.474l-33.131,-17.632Z" style="fill:#356045;"/><path d="M350.536,98.93l15.789,-16.784l17.342,34.416l-33.131,-17.632Z" style="fill:#0d433c;"/><path d="M383.667,116.562l-20.472,15.094l-9.125,-21.301l29.597,6.207Z" style="fill:#51873b;"/><path d="M345.83,133.239l-14.072,-21.796l11.505,-3.355l2.567,25.151Z" style="fill:#125b51;"/><path d="M343.263,108.088l10.807,2.267l-8.24,22.884l-2.567,-25.151Z" style="fill:#51883c;"/><path d="M345.83,133.239l17.365,-1.583l-9.125,-21.301l-8.24,22.884Z" style="fill:#125b51;"/><path d="M345.83,133.239l6.322,24.275l11.043,-25.858l-17.365,1.583Z" style="fill:#ac9b34;"/><path d="M345.83,133.239l-6.338,25.218l12.66,-0.943" style="fill:#197e3e;"/><path d="M345.83,133.239l-22.896,0.477l16.558,24.741l6.338,-25.218Z" style="fill:#125b51;"/><path d="M363.195,131.656l20.472,-15.094l18.939,13.968l-39.411,1.126Z" style="fill:#14783d;"/><path d="M383.667,116.562l8.848,-4.226l10.091,18.194l-18.939,-13.968Z" style="fill:#186347;"/><path d="M378.767,131.211l49.398,9.509l-25.559,-10.19l-23.839,0.681Z" style="fill:#165f4c;"/><path d="M378.767,131.211l7.973,18.421l5.281,-15.869l-13.254,-2.552Z" style="fill:#14783d;"/><path d="M339.492,158.457l12.66,-0.943l-2.367,54.728l-10.293,-53.785Z" style="fill:#912547;"/><path d="M339.492,158.457l-22.197,60.687l32.49,-6.902l-10.293,-53.785Z" style="fill:#cc6f26;"/><path d="M317.295,219.144l32.49,-6.902l31.986,-6.397l-63.298,44.443l-1.178,-31.144Z" style="fill:#cda827;"/><path d="M349.785,212.242l2.367,-54.728l22.197,-7.477l-24.564,62.205Z" style="fill:#125b51;"/><path d="M374.349,150.037l16.835,21.01l-4.444,-21.415" style="fill:#165f4c;"/><path d="M391.184,171.047l-31.835,16.976l15,-37.986l16.835,21.01Z" style="fill:#278740;"/><path d="M349.785,212.242l9.564,-24.219l22.422,17.822l-31.986,6.397Z" style="fill:#6f722c;"/><path d="M381.771,205.845l9.413,-34.798l-31.835,16.976l22.422,17.822Z" style="fill:#ac9b34;"/><path d="M318.473,250.288l13.097,20.807l16.737,-41.754l-29.834,20.947Z" style="fill:#cc6f26;"/><path d="M348.307,229.341l33.464,-23.496l7.576,62.961l-41.04,-39.465Z" style="fill:#cc6f26;"/><path d="M342.69,243.355l19.428,36.701l-30.548,-8.961" style="fill:#b0b333;"/><path d="M348.307,229.341l13.811,50.715l-19.428,-36.701" style="fill:#912547;"/><path d="M362.118,280.056l27.229,-11.25l-41.04,-39.465l13.811,50.715Z" style="fill:#ac9b34;"/><path d="M381.771,205.845l31.058,-1.115l-21.645,-33.683l-9.413,34.798Z" style="fill:#6f722c;"/><path d="M397.198,163.291l37.485,5.827l-43.499,1.929l6.014,-7.756Z" style="fill:#21833d;"/><path d="M434.683,169.118l-21.854,35.612l-21.645,-33.683l43.499,-1.929Z" style="fill:#53a745;"/><path d="M412.829,204.73l51.447,-5.783l-29.593,-29.829l-21.854,35.612Z" style="fill:#23843f;"/><path d="M464.276,198.947l-29.593,-29.829l5.907,-1.015l23.686,30.844Z" style="fill:#21833d;"/><path d="M412.829,204.73l51.545,42.824l-0.098,-48.607l-51.447,5.783Z" style="fill:#237a3c;"/><path d="M381.771,205.845l61.56,24.226l-30.502,-25.341l-31.058,1.115Z" style="fill:#ac9b34;"/><path d="M381.771,205.845l5.163,42.912l56.397,-18.686l-61.56,-24.226Z" style="fill:#278740;"/><path d="M389.347,268.806l53.984,-38.735l-56.397,18.686l2.413,20.049Z" style="fill:#ac9b34;"/><path d="M482.762,254.887l-13.373,55.468l-5.015,-62.801l18.388,7.333Z" style="fill:#23853f;"/><path d="M464.374,247.554l-55.944,7.559l34.901,-25.042l21.043,17.483Z" style="fill:#58a944;"/><path d="M408.43,255.113l60.959,55.242l-5.015,-62.801l-55.944,7.559Z" style="fill:#197e3e;"/><path d="M389.347,268.806l15.958,29.192l3.125,-42.885l-19.083,13.693Z" style="fill:#186347;"/><path d="M405.305,297.998l29.99,-18.539l-26.865,-24.346l-3.125,42.885Z" style="fill:#47823c;"/><path d="M405.305,297.998l64.084,12.357l-34.094,-30.896l-29.99,18.539Z" style="fill:#bcab32;"/><path d="M458.381,371.433l2.13,-30.184l19.709,-6.215l-21.839,36.399Z" style="fill:#197e3e;"/><path d="M460.511,341.249l-9.591,-34.455l18.469,3.561l-8.878,30.894Z" style="fill:#395c35;"/><path d="M460.511,341.249l8.878,-30.894l10.831,24.679l-19.709,6.215Z" style="fill:#1c572a;"/><path d="M426.244,392.029l24.676,-85.235l9.591,34.455l-34.267,50.78Z" style="fill:#3d763a;"/><path d="M426.244,392.029l-21.801,-25.077l-1.645,34.671l23.446,-9.594Z" style="fill:#47823c;"/><path d="M404.443,366.952l29.474,-1.429l-28.468,-18.108l-1.006,19.537Z" style="fill:#3d763a;"/><path d="M404.443,366.952l29.474,-1.429l-7.673,26.506l-21.801,-25.077Z" style="fill:#257539;"/><path d="M405.305,297.998l8.476,31.03l37.336,-22.196l-45.812,-8.834Z" style="fill:#47823c;"/><path d="M413.781,329.028l-8.332,18.387l45.668,-40.583l-37.336,22.196Z" style="fill:#395c35;"/><path d="M428.741,326.716l5.176,38.807l-28.468,-18.108l23.292,-20.699Z" style="fill:#257539;"/><path d="M428.741,326.716l22.376,-19.884l-17.2,58.691l-5.176,-38.807Z" style="fill:#47823c;"/><path d="M283.762,82.48l4.982,-8.006l13.891,-19.763l1.801,2.961l17.341,25.5l-38.015,-0.692Z" style="fill:#0d433c;"/><path d="M288.744,74.474l-32.801,-31.16l40.169,0.672l-7.368,30.488Z" style="fill:#3f124c;"/><path d="M296.112,43.986l6.523,10.725l-13.891,19.763l7.368,-30.488Z" style="fill:#0f3e5a;"/><path d="M270.864,90.391l-3.398,-36.13l21.278,20.213l-17.88,15.917Z" style="fill:#0e5f63;"/><path d="M242.129,85.707l26.97,-14.082l1.765,18.766l-28.735,-4.684Z" style="fill:#0b2c40;"/><path d="M267.466,54.261l-18.852,28.06l20.485,-10.696l-1.633,-17.364Z" style="fill:#0d433c;"/><path d="M255.943,43.314l-56.228,40.282l13.447,-33.193l42.781,-7.089Z" style="fill:#401147;"/><path d="M255.943,43.314l-26.512,18.993l38.035,-8.046l-11.523,-10.947Z" style="fill:#0b2c40;"/><path d="M228.9,62.687l19.714,19.634l18.852,-28.06l-38.566,8.426Z" style="fill:#193a6a;"/><path d="M248.614,82.321l-6.485,3.386l-25.913,21.154l12.684,-44.174l19.714,19.634Z" style="fill:#3f124c;"/><path d="M216.216,106.861l26.871,27.39l-0.958,-48.544l-25.913,21.154Z" style="fill:#4f154e;"/><path d="M212.474,139.269l30.613,-5.018l-7.176,15.345l-23.437,-10.327Z" style="fill:#0f3c5b;"/><path d="M212.474,139.269l3.742,-32.408l26.871,27.39l-30.613,5.018Z" style="fill:#45374a;"/><path d="M216.216,106.861l-16.501,-23.265l29.185,-20.909l-12.684,44.174Z" style="fill:#a81c32;"/><path d="M142.768,66.873l18.307,-11.985l32.736,7.685l13.147,3.144l-64.19,1.156Z" style="fill:#4f154e;"/><path d="M199.244,52.709l-5.433,9.864l-32.736,-7.685l42.406,-10.854l-4.237,8.675Z" style="fill:#193a6a;"/><path d="M193.811,62.573l19.351,-12.17l-13.918,2.306l-5.433,9.864Z" style="fill:#0f3e5a;"/><path d="M206.958,65.717l-13.147,-3.144l19.351,-12.17l-6.204,15.314Z" style="fill:#0e5f63;"/><path d="M212.474,139.269l-43.21,21.814l20.788,-41.787l22.422,19.973Z" style="fill:#370f21;"/><path d="M216.216,106.861l-17.415,20.228l13.673,12.18l3.742,-32.408Z" style="fill:#103155;"/><path d="M216.216,106.861l-42.037,-0.33l15.873,12.765l8.749,7.793l17.415,-20.228Z" style="fill:#4f154e;"/><path d="M199.715,83.596l-10.555,23.053l27.056,0.212l-16.501,-23.265Z" style="fill:#370f21;"/><path d="M196.47,90.683l-25.86,-24.358l36.348,-0.608l-7.243,17.879l-3.245,7.087Z" style="fill:#0e5f63;"/><path d="M170.61,66.325l-48.686,40.081l50.173,-18.205l-1.487,-21.876Z" style="fill:#401147;"/><path d="M163.809,66.439l6.801,-0.114" style="fill:none;"/><path d="M172.097,88.201l24.373,2.482l-25.86,-24.358l1.487,21.876Z" style="fill:#3d1448;"/><path d="M172.097,88.201l17.063,18.448l7.31,-15.966l-24.373,-2.482Z" style="fill:#0f3c5b;"/><path d="M174.179,106.531l-52.255,-0.125l50.173,-18.205l17.063,18.448l-14.981,-0.118Z" style="fill:#45374a;"/><path d="M150.783,106.475l39.269,12.821l-15.873,-12.765l-23.396,-0.056Z" style="fill:#3d1448;"/><path d="M167.976,112.089l5.18,41.171l16.896,-33.964l-22.076,-7.207Z" style="fill:#4f154e;"/><path d="M173.156,153.26l-50.451,3.107l46.769,-32.376l3.682,29.269Z" style="fill:#df1e26;"/><path d="M149.33,171.146l23.826,-17.886l-3.892,7.823l-19.934,10.063Z" style="fill:#103155;"/><path d="M136.606,195.612l4.455,-40.376l5.294,38.42l-9.749,1.956Z" style="fill:#c42025;"/><path d="M149.33,171.146l2.817,-16.592l-11.086,0.682l5.294,38.42l2.975,-22.51Z" style="fill:#2a0f1c;"/><path d="M149.33,171.146l2.817,-16.592l21.009,-1.294l-23.826,17.886Z" style="fill:#4f154e;"/><path d="M150.783,106.475l-10.153,37.483l27.772,-31.73l-17.619,-5.753Z" style="fill:#370f21;"/><path d="M169.474,123.991l-1.072,-11.763l-27.772,31.73l28.844,-19.967Z" style="fill:#3c1348;"/><path d="M145.56,125.759l-40.171,-1.805l16.535,-17.548l23.636,19.353Z" style="fill:#ac1e2c;"/><path d="M121.924,106.406l28.859,0.069l-5.223,19.284l-23.636,-19.353Z" style="fill:#df1e26;"/><path d="M145.56,125.759l-56.6,39.34l51.67,-21.141l4.93,-18.199Z" style="fill:#2a0f1c;"/><path d="M139.378,170.487l-50.418,-5.388l33.745,-8.732l16.673,14.12Z" style="fill:#c42025;"/><path d="M88.96,165.099l51.67,-21.141l-17.925,12.409l-33.745,8.732Z" style="fill:#270f1c;"/><path d="M122.705,156.367l18.356,-1.131l-1.683,15.251l-16.673,-14.12Z" style="fill:#270f1c;"/><path d="M88.96,165.099l-5.92,33.005l32.557,-30.158l-26.637,-2.847Z" style="fill:#df1e26;"/><path d="M101.482,181.021l-4.826,34.992l-13.616,-17.909l18.442,-17.083Z" style="fill:#150e1a;"/><path d="M97.814,207.619l19.563,-11.735l-22.497,33.153l1.776,-13.024l1.158,-8.394Z" style="fill:#370f21;"/><path d="M98.55,223.63l18.531,14.288l-6.684,-31.748l-11.847,17.46Z" style="fill:#45374a;"/><path d="M124.333,197.808l12.273,-2.196l32.194,25.884l-44.467,-23.688Z" style="fill:#45374a;"/><path d="M108.177,231.053l4.908,27.437l28.417,-4.44l-24.421,-16.132l-8.904,-6.865Z" style="fill:#370f21;"/><path d="M141.502,254.05l22.558,-3.708l-12.938,32.421l-25.264,-26.268l15.644,-2.445Z" style="fill:#be3528;"/><path d="M114.816,124.378l-11.829,30.971l42.573,-29.59l-30.744,-1.381Z" style="fill:#3c1348;"/><path d="M105.389,123.954l-16.429,41.145l25.856,-40.721l-9.427,-0.424Z" style="fill:#df1e26;"/><path d="M114.816,124.378l-25.856,40.721l14.027,-9.75l11.829,-30.971Z" style="fill:#ac1e2c;"/><path d="M154.299,274.803l31.356,-11.067l-21.595,-13.394l-9.761,24.461Z" style="fill:#c42025;"/><path d="M199.62,272.399l-13.965,-8.663l-19.788,36.031l33.753,-27.368Z" style="fill:#bd1e25;"/><path d="M154.299,274.803l11.568,24.964l19.788,-36.031l-31.356,11.067Z" style="fill:#a01e20;"/><path d="M125.858,256.495l0.402,24.196l18.859,-4.169l-19.261,-20.027Z" style="fill:#df4b27;"/><path d="M125.962,262.79l-13.605,37.624l17.621,33.14l-3.718,-52.863l-0.298,-17.901Z" style="fill:#be3528;"/><path d="M126.26,280.691l24.862,2.072l-6.003,-6.241l-18.859,4.169Z" style="fill:#eb7f23;"/><path d="M126.26,280.691l24.862,2.072l-21.144,50.791l-3.718,-52.863Z" style="fill:#c42025;"/><path d="M144.808,297.931l-0.608,22.047l12.085,-11.535l9.582,-8.676l-21.059,-1.836Z" style="fill:#bd1e25;"/><path d="M144.808,297.931l6.314,-15.168l3.177,-7.96l11.568,24.964l-21.059,-1.836Z" style="fill:#600d20;"/><path d="M144.808,297.931l-14.83,35.623l14.496,19.215l-0.274,-32.791l0.608,-22.047Z" style="fill:#df4b27;"/><path d="M156.285,308.443l32.376,12.501l-11.738,-30.142l-11.056,8.965l-9.582,8.676Z" style="fill:#d04d29;"/><path d="M181.401,287.171l25.529,12.679l-7.31,-27.451l-18.219,14.772Z" style="fill:#600d20;"/><path d="M225.198,308.347l-26.624,0.397l45.039,9.488l10.043,-10.919l-28.458,1.034Z" style="fill:#eb4d25;"/><path d="M198.574,308.744l-8.467,-17.249l16.823,8.355l18.268,8.497l-26.624,0.397Z" style="fill:#a5251e;"/><path d="M176.923,290.802l13.184,0.693l-8.706,-4.324l-4.478,3.631Z" style="fill:#eb4d25;"/><path d="M181.806,303.342l16.768,5.402l-8.467,-17.249l-8.301,11.847Z" style="fill:#c72525;"/><path d="M176.923,290.802l13.184,0.693l-8.301,11.847l-4.883,-12.54Z" style="fill:#a5251e;"/><path d="M263.536,324.368l-47.728,14.964l26.596,40.24l11.137,-31.942l9.995,-23.262Z" style="fill:#c72d28;"/><path d="M188.661,320.944l9.913,-12.2l-16.768,-5.402l6.855,17.602Z" style="fill:#eb4d25;"/><path d="M188.661,320.944l54.952,-2.712l-45.039,-9.488l-9.913,12.2Z" style="fill:#a35111;"/><path d="M215.808,339.332l27.805,-21.1l19.923,6.136l-47.728,14.964Z" style="fill:none;"/><path d="M215.808,339.332l-27.147,-18.388l54.952,-2.712l-27.805,21.1Z" style="fill:#b22823;"/><path d="M208.099,423.817l-10.476,21.266l26.852,7.689l-16.376,-28.955Z" style="fill:none;"/><path d="M180.858,417.441l27.241,6.376l-10.476,21.266l-16.765,-27.642Z" style="fill:none;"/><path d="M208.099,423.817l-4.613,-40.75l24.805,14.706l-20.192,26.044Z" style="fill:none;"/><path d="M228.291,397.773l-5.774,-48.29l19.887,30.089l-14.113,18.201Z" style="fill:#e87c22;"/><path d="M215.808,339.332l-12.322,43.735l19.031,-33.584l-6.709,-10.151Z" style="fill:#d53925;"/><path d="M222.517,349.483l-19.031,33.584l24.805,14.706l-5.774,-48.29Z" style="fill:#e16025;"/><path d="M187.975,419.107l15.511,-36.04l4.613,40.75l-20.124,-4.71Z" style="fill:#1e592b;"/><path d="M144.2,319.978l0.274,32.791l15.881,-20.228l-16.155,-12.563Z" style="fill:none;"/><path d="M144.2,319.978l12.085,-11.535l4.07,24.098l-16.155,-12.563Z" style="fill:#eb7f23;"/><path d="M160.355,332.541l28.306,-11.597l-32.376,-12.501l4.07,24.098Z" style="fill:#c72525;"/><path d="M168.924,329.031l46.884,10.301l-27.147,-18.388l-19.737,8.087Z" style="fill:#eb4d25;"/><path d="M193.251,334.376l-8.712,22.196l31.269,-17.24l-22.557,-4.956Z" style="fill:none;"/><path d="M195.927,350.293l15.191,5.686l4.69,-16.647l-19.881,10.961Z" style="fill:#d93d26;"/><path d="M195.927,350.293l3.554,42.17l4.005,-9.396l7.632,-27.088l-15.191,-5.686Z" style="fill:#c72d28;"/><path d="M161.319,385.224l36.639,-10.837l-17.1,43.054l-19.539,-32.217Z" style="fill:none;"/><path d="M184.539,356.572l-17.098,9.396l30.517,8.419l-2.031,-24.094l-11.388,6.279Z" style="fill:#b42a22;"/><path d="M167.441,365.968l-6.122,19.256l36.639,-10.837l-30.517,-8.419Z" style="fill:#eb4d25;"/><path d="M160.355,332.541l8.569,-3.51" style="fill:none;"/><path d="M160.355,332.541l-15.881,20.228l22.967,13.199l-7.086,-33.427Z" style="fill:#eb4d25;"/><path d="M160.355,332.541l8.569,-3.51" style="fill:none;"/><path d="M168.924,329.031l-4.971,20.485l-3.598,-16.975l8.569,-3.51Z" style="fill:#b6402f;"/><path d="M163.953,349.516l29.298,-15.14l-24.327,-5.345l-4.971,20.485Z" style="fill:#b22823;"/><path d="M167.441,365.968l13.003,-24.974l-16.491,8.522l3.488,16.452Z" style="fill:#bd3723;"/><path d="M180.444,340.994l4.095,15.578l8.712,-22.196l-12.807,6.618Z" style="fill:#bd3126;"/><path d="M167.441,365.968l13.003,-24.974l4.095,15.578l-17.098,9.396Z" style="fill:#b6402f;"/><path d="M144.474,352.769l16.845,32.455l6.122,-19.256l-22.967,-13.199Z" style="fill:#bd3126;"/><path d="M197.958,374.387l-8.734,21.989l10.257,-3.913l-1.523,-18.076Z" style="fill:#d53925;"/><path d="M189.224,396.376l-8.366,21.065l18.623,-24.978l-10.257,3.913Z" style="fill:#d93d26;"/><path d="M199.481,392.463l-18.623,24.978l7.117,1.666l11.506,-26.644Z" style="fill:#b6402f;"/><path d="M197.623,445.083l10.476,-21.266l16.376,28.955l-26.852,-7.689Z" style="fill:#1e592b;"/><path d="M180.858,417.441l17.1,-43.054l-36.639,10.837l19.539,32.217Z" style="fill:#b42a22;"/><path d="M215.808,339.332l27.805,-21.1l19.923,6.136l-47.728,14.964Z" style="fill:#eb4d25;"/><path d="M180.858,417.441l27.241,6.376l-10.476,21.266l-16.765,-27.642Z" style="fill:#e87c22;"/><path d="M208.099,423.817l-4.613,-40.75l24.805,14.706l-20.192,26.044Z" style="fill:#e87c22;"/><path d="M144.474,352.769l-0.274,-32.791l16.155,12.563l-15.881,20.228Z" style="fill:#bd3723;"/><path d="M184.539,356.572l8.712,-22.196l22.557,4.956l-31.269,17.24Z" style="fill:#d93e26;"/></g><g id="Water"><path d="M452.824,150.552l27.958,4.695l0.854,33.933l-28.812,-38.628Z" style="fill:#1c572a;"/><path d="M481.636,189.18l-0.854,-33.933l17.287,63.172l-16.433,-29.239Z" style="fill:#197e3e;"/><path d="M482.762,254.887l15.307,-36.468l-3.29,71.517l-12.017,-35.049Z" style="fill:#197e3e;"/><path d="M482.762,254.887l-13.373,55.468l25.39,-20.419" style="fill:#1c572a;"/><path d="M494.779,289.936l-14.559,45.098l-10.831,-24.679" style="fill:#197e3e;"/><path d="M460.511,341.249l-34.267,50.78l32.137,-20.596l2.13,-30.184Z" style="fill:#177d3d;"/><path d="M458.381,371.433l-41.37,45.098l9.233,-24.502" style="fill:#197e3e;"/><path d="M426.244,392.029l-61.611,25.212l52.378,-0.71" style="fill:#1c572a;"/><path d="M417.011,416.531l-54.686,34.267l2.308,-33.557" style="fill:#197e3e;"/><path d="M481.636,189.18l16.433,29.239l-15.307,36.468l-1.126,-65.707Z" style="fill:#1c572a;"/><path d="M466.483,126.222l-13.659,24.33l-3.344,-48.904l17.003,24.574Z" style="fill:#1c572a;"/><path d="M352.152,157.514l22.197,-7.477l-11.154,-18.381l-11.043,25.858Z" style="fill:#165f4c;"/><path d="M374.349,150.037l4.418,-18.826l-15.572,0.445l11.154,18.381Z" style="fill:#1a7e3f;"/><path d="M374.349,150.037l12.391,-0.405l-7.973,-18.421l-4.418,18.826Z" style="fill:#165f4c;"/><path d="M386.74,149.632l5.281,-15.869l-0.837,37.284l-4.444,-21.415Z" style="fill:#1a7e3f;"/><path d="M391.184,171.047l0.837,-37.284l24.428,4.702l-25.265,32.582Z" style="fill:#b6ae32;"/><path d="M397.198,163.291l30.967,-22.571l-11.716,-2.255" style="fill:#3d7735;"/><path d="M428.165,140.72l-30.967,22.571l37.485,5.827l-6.518,-28.398Z" style="fill:#156d37;"/><path d="M362.325,450.798l-48.972,13.757l51.28,-47.314l-2.308,33.557Z" style="fill:#31774b;"/><path d="M313.353,464.555l-100.771,-3.899l48.144,-31.917l52.627,35.816Z" style="fill:#3d7736;"/><path d="M260.726,428.739l-52.627,-4.922l16.376,28.955" style="fill:#d99628;"/><path d="M208.099,423.817l34.305,-44.245l18.322,49.167l-52.627,-4.922Z" style="fill:#e16025;"/><path d="M224.475,452.772l-77.97,-22.327l66.077,30.211l11.893,-7.884Z" style="fill:#c62c27;"/><path d="M197.623,445.083l-36.304,-59.859l-14.814,45.221l51.118,14.638Z" style="fill:#cb982c;"/><path d="M364.633,417.241l40.816,-69.826l-1.006,19.537l-1.745,34.712l-38.065,15.577Z" style="fill:#31774b;"/><path d="M388.647,376.159l0.7,-107.353l15.958,29.192l-16.658,78.161Z" style="fill:#22843e;"/><path d="M348.199,390.478l31.832,-71.994l8.616,57.675l-40.448,14.319Z" style="fill:#3d7539;"/><path d="M348.199,390.478l-105.795,-10.906l18.322,49.167" style="fill:#2432ff;"/><path d="M380.031,318.484l-78.749,67.158l46.917,4.836l31.832,-71.994Z" style="fill:#df9228;"/><path d="M301.282,385.642l-5.088,-31.414l15.398,2.591l20.31,3.631l-30.62,25.192Z" style="fill:#edba1d;"/><path d="M254.294,345.877l-11.89,33.695l58.878,6.07l-46.988,-39.765Z" style="fill:#e16025;"/><path d="M311.592,356.819l68.439,-38.335l-48.129,41.966l-20.31,-3.631Z" style="fill:#3d7736;"/><path d="M275.524,299.627l75.865,34.901l-39.797,22.291l-36.068,-57.192Z" style="fill:#cb982c;"/><path d="M389.347,268.806l-37.958,65.722l37.667,-21.099l0.291,-44.623Z" style="fill:#395c35;"/><path d="M301.282,385.642l-40.556,43.097l-18.322,-49.167l58.878,6.07Z" style="fill:#c62c27;"/><path d="M348.199,390.478l16.434,26.763l-63.351,-31.599l46.917,4.836Z" style="fill:#3d7736;"/><path d="M348.199,390.478l40.448,-14.319l-24.014,41.082l-16.434,-26.763Z" style="fill:#238540;"/><path d="M301.282,385.642l-5.088,-31.414l-41.9,-8.351l46.988,39.765Z" style="fill:#cb982c;"/><path d="M333.574,292.032l17.815,42.496l-19.115,-9.451l1.3,-33.045Z" style="fill:#395c35;"/><path d="M318.473,250.288l13.097,20.807l10.708,17.444l-48.277,19.374l24.472,-57.625Z" style="fill:#cf7426;"/><path d="M199.62,272.399l7.31,27.451l18.268,8.497l-25.578,-35.948Z" style="fill:#a35111;"/><path d="M241.067,287.267l36.371,-17.375l16.563,38.021l-18.477,-8.286l-34.457,-12.36Z" style="fill:#165f4c;"/><path d="M241.067,287.267l77.406,-36.979l-118.853,22.111l41.447,14.868Z" style="fill:#a01e20;"/><path d="M318.473,250.288l-46.465,8.644l45.287,-39.788l1.178,31.144Z" style="fill:#b62f26;"/><path d="M199.62,272.399l-49.817,-30.901l30.659,-32.283l19.158,63.184Z" style="fill:#9d1c1d;"/><path d="M168.8,221.496l11.662,-12.281l25.989,-27.613l-69.845,14.01l32.194,25.884Z" style="fill:#3c1023;"/><path d="M199.62,272.399l-12.966,-42.762l52.302,19.55l-39.336,23.212Z" style="fill:#670e1d;"/><path d="M238.69,249.087l61.208,-24.339l-27.89,34.184l-33.318,-9.845Z" style="fill:#630c1e;"/><path d="M299.898,224.748l19.644,-109.742l11.877,65.524l-31.521,44.218Z" style="fill:#59174f;"/><path d="M307.689,181.224l-68.999,67.863l61.208,-24.339" style="fill:#b62f26;"/><path d="M238.69,249.087l-52.036,-19.45l-6.192,-20.422l58.228,39.872Z" style="fill:#a01e20;"/><path d="M198.111,221.301l81.517,-12.478l-40.938,40.264l-40.579,-27.786Z" style="fill:#9d1c1d;"/><path d="M180.462,209.215l25.989,-27.613l-8.34,39.699l-17.649,-12.086Z" style="fill:#45374a;"/><path d="M206.451,181.602l6.023,-42.333l40.113,64.65l-48.959,-8.879l2.823,-13.438Z" style="fill:#3f134b;"/><path d="M146.204,193.687l3.126,-22.541l57.121,10.456l-60.247,12.085Z" style="fill:#3f134b;"/><path d="M149.33,171.146l63.144,-31.877l-6.023,42.333l-57.121,-10.456Z" style="fill:#b72c2e;"/><path d="M276.122,412.378l65.791,-6.47l-40.631,-20.266l-25.16,26.736Z" style="fill:#1e592b;"/><path d="M276.122,412.378l20.816,41.005l-36.212,-24.644l15.396,-16.361Z" style="fill:#df9228;"/><path d="M296.938,453.383l44.975,-47.475l-65.791,6.47l20.816,41.005Z" style="fill:#3d7539;"/><path d="M341.913,405.908l-3.209,35.257l25.929,-23.924l-22.72,-11.333Z" style="fill:#df9228;"/><path d="M338.704,441.165l-25.351,23.39l28.56,-58.647l-3.209,35.257Z" style="fill:#3d7539;"/><path d="M341.913,405.908l-35.097,37.048l6.537,21.599l28.56,-58.647Z" style="fill:#238540;"/><path d="M306.816,442.956l-9.878,10.427l16.415,11.172l-6.537,-21.599Z" style="fill:#1e592b;"/><path d="M307.689,181.224l-55.102,22.695l27.041,4.904l28.061,-27.599Z" style="fill:#b72c2e;"/><path d="M236.53,178.04l71.159,3.184l-55.102,22.695l-16.057,-25.879Z" style="fill:#a01e20;"/><path d="M212.474,139.269l41.565,18.315l-17.509,20.456l-24.056,-38.771Z" style="fill:#912547;"/><path d="M258.416,101.474l-22.505,48.122l18.128,7.988l4.377,-56.11Z" style="fill:#59174f;"/><path d="M243.087,134.251l-0.958,-48.544l16.287,15.767l-15.329,32.777Z" style="fill:#0f3a5d;"/><path d="M274.578,152.797l37.288,5.094l-28.682,22.236l-8.606,-27.33Z" style="fill:#165f4c;"/><path d="M283.184,180.127l28.682,-22.236l-4.209,23.51l-24.473,-1.274Z" style="fill:#3e1223;"/><path d="M229.81,216.449l-1.364,-16.908l-30.335,21.76l31.699,-4.852Z" style="fill:#3c1023;"/><path d="M198.111,221.301l5.517,-26.261l24.818,4.501l-30.335,21.76Z" style="fill:#9d1c1d;"/><path d="M229.81,216.449l-1.364,-16.908l51.182,9.282l-49.818,7.626Z" style="fill:#630c1e;"/><path d="M254.294,345.877l39.835,-16.748l-18.605,-29.502l-12.704,26.218l-8.526,20.032Z" style="fill:#e16025;"/><path d="M254.294,345.877l39.835,-16.748l17.463,27.69l-15.398,-2.591l-41.9,-8.351Z" style="fill:#cf7426;"/><path d="M274.578,152.797l44.964,-37.791l-7.676,42.885l-37.288,-5.094Z" style="fill:#912547;"/><path d="M262.962,115.91l41.687,11.614l-30.071,25.273l-11.616,-36.887Z" style="fill:#a01e20;"/><path d="M258.416,101.474l30.328,-27l-25.782,41.436l-4.546,-14.436Z" style="fill:#912547;"/><path d="M242.129,85.707l28.735,4.684l-12.448,11.083l-16.287,-15.767Z" style="fill:#ab5827;"/><path d="M254.039,157.584l16.086,-18.927l13.059,41.47l-46.654,-2.087l17.509,-20.456Z" style="fill:#0f3a5d;"/><path d="M254.039,157.584l4.377,-56.11l11.709,37.183l-16.086,18.927Z" style="fill:#3f134b;"/><path d="M262.962,115.91l20.8,-33.43l20.887,45.044l-41.687,-11.614Z" style="fill:#243646;"/><path d="M283.762,82.48l38.015,0.692l-17.128,44.352l-20.887,-45.044Z" style="fill:#0a2c40;"/><path d="M319.542,115.006l2.235,-31.834l-17.128,44.352l14.893,-12.518Z" style="fill:#ab5827;"/><path d="M304.436,57.672l17.341,25.5l9.904,-26.665l-27.245,1.165Z" style="fill:#0e5f63;"/><path d="M331.681,56.507l18.933,-5.42l-12.738,-25.017l-6.195,30.437Z" style="fill:#0f3f56;"/><path d="M277.438,269.892l28.825,9.147l-12.262,28.874l-16.563,-38.021Z" style="fill:#b62f26;"/><path d="M277.438,269.892l41.035,-19.604l-12.21,28.751l-28.825,-9.147Z" style="fill:#165f4c;"/><path d="M333.574,292.032l-1.3,33.045l-38.273,-17.164l39.573,-15.881Z" style="fill:#cda827;"/><path d="M347.607,286.401l14.511,-6.345l27.229,-11.25l-37.958,65.722l-17.815,-42.496l14.033,-5.631Z" style="fill:#22843e;"/><path d="M199.62,272.399l39.336,-23.212l33.052,9.745l-72.388,13.467Z" style="fill:#b62f26;"/><path d="M296.655,17.68l-50.602,0.581l50.059,25.725l0.543,-26.306Z" style="fill:#4f154e;"/><path d="M246.053,18.261l9.89,25.053l40.169,0.672l-50.059,-25.725Z" style="fill:#0f3f56;"/><path d="M246.053,18.261l-32.964,6.098l42.854,18.955l-9.89,-25.053Z" style="fill:#3f124c;"/><path d="M213.089,24.359l-13.845,28.35l56.699,-9.395l-42.854,-18.955Z" style="fill:#4f154e;"/><path d="M142.545,59.631l70.544,-35.272l-9.608,19.675l-60.936,15.597Z" style="fill:#3f124c;"/><path d="M296.112,43.986l41.764,-17.916l-41.221,-8.39l-0.543,26.306Z" style="fill:#3f124c;"/><path d="M296.112,43.986l8.324,13.686l33.44,-31.602l-41.764,17.916Z" style="fill:#0f3f56;"/><path d="M272.008,258.932l27.89,-34.184l24.402,-33.978l7.119,-10.24l-14.124,38.614l-45.287,39.788Z" style="fill:#912547;"/><path d="M331.57,271.095l10.708,17.444l19.84,-8.483l-30.548,-8.961Z" style="fill:#cda827;"/><path d="M331.419,180.53l-8.485,-46.814l16.558,24.741l-8.073,22.073Z" style="fill:#3f134b;"/><path d="M322.934,133.716l8.824,-22.273l-12.216,3.563l3.392,18.71Z" style="fill:#3e1223;"/><path d="M322.934,133.716l8.824,-22.273l14.072,21.796l-22.896,0.477Z" style="fill:#243646;"/><path d="M321.777,83.172l9.769,-1.211l11.717,26.127l-21.486,-24.916Z" style="fill:#0e5f63;"/><path d="M331.546,81.961l18.99,16.969l-7.273,9.158l-11.717,-26.127Z" style="fill:#0f3c5a;"/><path d="M331.681,56.507l-9.904,26.665l9.769,-1.211l0.135,-25.454Z" style="fill:#0f3c5a;"/><path d="M229.57,283.143l-4.372,25.204l-25.578,-35.948l29.95,10.744Z" style="fill:#9f1d20;"/><path d="M227.255,296.491l41.538,17.027l-27.726,-26.251l-13.812,9.224Z" style="fill:#a35111;"/><path d="M229.529,283.128l-2.274,13.363l13.812,-9.224l-11.538,-4.139Z" style="fill:#640d1e;"/><path d="M241.067,287.267l27.726,26.251l6.731,-13.891l-34.457,-12.36Z" style="fill:#d27127;"/><path d="M253.656,307.313l-10.043,10.919l19.923,6.136l-9.88,-17.055Z" style="fill:#640d1e;"/><path d="M263.536,324.368l5.257,-10.85l-15.137,-6.205l9.88,17.055Z" style="fill:#9f1d20;"/><path d="M225.198,308.347l28.458,-1.034l-26.401,-10.822l-2.057,11.856Z" style="fill:#d27127;"/><path d="M304.436,57.672l33.44,-31.602l-6.195,30.437l-27.245,1.165Z" style="fill:#0a2c40;"/><path d="M380.031,318.484l9.025,-5.055l-0.409,62.73l-8.616,-57.675Z" style="fill:#186347;"/><path d="M405.305,297.998l8.476,31.03l-8.332,18.387l-16.802,28.744l16.658,-78.161Z" style="fill:#3d7736;"/><path d="M149.803,241.498l-8.301,12.552l22.558,-3.708l-14.257,-8.844Z" style="fill:#eb4c25;"/><path d="M149.803,241.498l-4.314,-32.42l23.311,12.418l-18.997,20.002Z" style="fill:none;"/><path d="M149.803,241.498l-32.722,-3.58l24.421,16.132l8.301,-12.552Z" style="fill:#45374a;"/><path d="M128.51,239.168l16.979,-30.09l4.314,32.42l-21.293,-2.33Z" style="fill:#c92725;"/><path d="M128.51,239.168l-18.113,-32.998l13.936,-8.362l4.177,41.36Z" style="fill:none;"/><path d="M126.002,214.332l13.291,5.726l-10.783,19.11l-2.508,-24.836Z" style="fill:#9a1d1f;"/><path d="M126.002,214.332l12.211,-9.13l-13.88,-7.394l1.669,16.524Z" style="fill:#c92725;"/><path d="M138.213,205.202l1.08,14.856l-13.291,-5.726l12.211,-9.13Z" style="fill:#eb4c25;"/><path d="M138.213,205.202l7.276,3.876l-6.196,10.98l-1.08,-14.856Z" style="fill:#680e1a;"/><path d="M145.489,209.078l23.311,12.418l-18.997,20.002l-4.314,-32.42Z" style="fill:#9a1d1f;"/><path d="M117.081,237.918l-6.684,-31.748l18.113,32.998l-11.429,-1.25Z" style="fill:#eb4c25;"/><path d="M117.377,195.884l13.25,-19.334l-6.294,21.258l-13.936,8.362l6.98,-10.286Z" style="fill:none;"/><path d="M127.266,187.903l9.34,7.709l-12.273,2.196l2.933,-9.905Z" style="fill:#940b0d;"/><path d="M127.266,187.903l12.112,-17.416l-2.772,25.125l-9.34,-7.709Z" style="fill:#e84a22;"/><path d="M130.627,176.55l1.945,-6.79l6.806,0.727l-12.112,17.416l3.361,-11.353Z" style="fill:#680e1a;"/><path d="M100.529,187.932l16.848,7.952l-19.563,11.735l2.715,-19.687Z" style="fill:#940b0d;"/><path d="M108.289,191.595l7.308,-23.649l-15.068,19.986l7.76,3.663Z" style="fill:#a92820;"/><path d="M100.529,187.932l0.953,-6.911l14.115,-13.075l-15.068,19.986Z" style="fill:#c92725;"/><path d="M112.413,178.25l4.964,17.634l-9.088,-4.289l4.124,-13.345Z" style="fill:#c92725;"/><path d="M112.413,178.25l18.214,-1.7l-13.25,19.334l-4.964,-17.634Z" style="fill:#e84a22;"/><path d="M115.597,167.946l15.03,8.604l1.945,-6.79l-16.975,-1.814Z" style="fill:#a92820;"/><path d="M112.413,178.25l3.184,-10.304l15.03,8.604l-18.214,1.7Z" style="fill:#911c23;"/><path d="M110.397,206.17l13.936,-8.362l4.177,41.36l-18.113,-32.998Z" style="fill:#680e1a;"/><path d="M110.397,206.17l6.98,-10.286l13.25,-19.334l-6.294,21.258l-13.936,8.362Z" style="fill:#ae2921;"/><path d="M138.465,68.991l0.673,21.819l27.169,-22.367l-27.842,0.548Z" style="fill:#3c1023;"/><path d="M142.545,59.631l0.223,7.242l18.307,-11.985l-18.53,4.743Z" style="fill:#351c4a;"/><path d="M135.524,52.317l-20.622,46.775l21.517,-17.714l-0.895,-29.061Z" style="fill:#c21f26;"/><path d="M56.057,246.042l-20.854,-20.187l-0.877,15.487l21.731,4.7Z" style="fill:#150e1a;"/><path d="M80.608,123.128l-29.818,8.368l15.563,-14.484l14.255,6.116Z" style="fill:#240f1f;"/><path d="M91.851,83.114l16.623,13.799l11.653,-26.431l-28.276,12.632Z" style="fill:#3c1023;"/><path d="M105.389,123.954l5.075,-27.06l11.46,9.512l-16.535,17.548Z" style="fill:#351c4a;"/><path d="M60.996,205.05l-13.225,24.351l19.14,-21.178l-5.915,-3.173Z" style="fill:#351c4a;"/><path d="M91.992,101.895l7.266,19.866l-0.262,-27.53l-7.004,7.664Z" style="fill:#c21f26;"/><path d="M74.007,110.725l17.898,10.117l-3.28,-20.898l-14.618,10.781Z" style="fill:#150e1a;"/><path d="M55.049,177.639l-20.402,32.954l10.435,-35.282l9.967,2.328Z" style="fill:#3c1023;"/><path d="M87.566,126.5l4.927,26.152l1.857,-32.24l-6.784,6.088Z" style="fill:#240f1f;"/><path d="M68.979,140.837l20.71,11.985l-4.926,-26.152l-15.784,14.167Z" style="fill:#351c4a;"/><path d="M57.017,148.996l26.883,0.608l-21.844,-7.372l-5.039,6.764Z" style="fill:#150e1a;"/><path d="M26.61,262.799l15.177,21.919l-4.088,-31.986l-11.089,10.067Z" style="fill:#150e1a;"/><path d="M61.877,159.483l20.926,-4.733l-12.378,-3.057l-8.548,7.79Z" style="fill:#351c4a;"/><path d="M81.135,155.225l6.697,11.207l5.584,-13.985l-12.281,2.778Z" style="fill:#351c4a;"/><path d="M85.342,171.093l-15.342,-9.253l8.645,-1.955l6.697,11.208Z" style="fill:#3c1023;"/><path d="M53.381,186.949l30.627,-4.678l-15.342,-9.252l-15.285,13.93Z" style="fill:#150e1a;"/><path d="M144.252,430.945l14.814,-45.22l-16.845,-32.455l2.031,77.675Z" style="fill:#a01e20;"/><path d="M132.768,384.851l-41.748,13.381l50.892,28.621l-9.144,-42.002Z" style="fill:#150e1a;"/><path d="M113.085,258.49l-0.728,41.924l13.605,-37.624l-12.877,-4.3Z" style="fill:#940b0d;"/><path d="M113.085,258.49l12.794,-1.999l0.083,6.299l-12.877,-4.3Z" style="fill:#150e1a;"/><path d="M94.88,229.037l-10.546,15.848l23.843,-13.832l-9.372,-7.799l-3.925,5.783Z" style="fill:none;"/><path d="M79.509,198.34l-22.299,42.116l35.916,-24.208l-13.617,-17.908Z" style="fill:#c42025;"/><path d="M82.253,225.722l12.627,3.315l1.776,-13.024l-14.403,9.709Z" style="fill:none;"/><path d="M82.253,225.722l2.081,19.163l10.546,-15.848l-12.627,-3.315Z" style="fill:#351c4a;"/><path d="M60.741,240.221l23.593,4.664l-2.081,-19.163l-21.512,14.499Z" style="fill:#150e1a;"/><path d="M84.334,244.885l27.665,7.537l-3.822,-21.369l-23.843,13.832Z" style="fill:#c42025;"/><path d="M111.999,252.422l-27.665,-7.537l-0.961,20.026l28.626,-12.489Z" style="fill:#3c1023;"/><path d="M113.085,258.49l-29.712,6.421l28.626,-12.489l1.086,6.068Z" style="fill:#351c4a;"/><path d="M83.373,264.911l28.984,35.503l0.728,-41.924l-29.712,6.421Z" style="fill:#680e1a;"/><path d="M129.507,334.731l-21.948,38.348l36.444,-19.133l-14.496,-19.215Z" style="fill:#670e1d;"/><path d="M110.664,300.825l-29.84,3.59l13.508,-23.596l16.332,20.006Z" style="fill:#940b0d;"/><path d="M99.756,302.337l3.147,26.134l8.991,-27.595l-12.138,1.461Z" style="fill:#351c4a;"/><path d="M106.132,319.518l16.771,0.73l-10.546,-19.834l-6.225,19.104Z" style="fill:#670e1d;"/><path d="M103.366,328.008l-6.584,16.735l26.121,-24.495l-16.771,-0.73l-2.766,8.49Z" style="fill:#240f1f;"/><path d="M107.279,334.899l22.699,-1.345l-7.075,-13.306l-15.624,14.651Z" style="fill:#351c4a;"/><path d="M89.008,362.565l11.248,27.159l-0.75,-37.003l-10.498,9.844Z" style="fill:#351c4a;"/><path d="M103.042,337.488l22.699,-1.345l-21.949,38.348l-0.75,-37.003Z" style="fill:#a01e20;"/><path d="M100.215,314.741l-19.175,-10.104l17.702,-2.13l1.473,12.234Z" style="fill:#240f1f;"/><path d="M76.396,308.712l14.266,40.738l0.186,-33.123l-14.452,-7.615Z" style="fill:#150e1a;"/><path d="M93.556,312.553l-0.186,33.123l4.91,-30.634l-4.724,-2.489Z" style="fill:#33333d;"/><path d="M99.633,315.667l-4.91,30.634l6.584,-16.734l-1.674,-13.9Z" style="fill:#a35111;"/><path d="M83.323,347.227l-27.621,-14.129l13.884,11.429l13.737,2.7Z" style="fill:#a35111;"/><path d="M58.152,243.046l22.632,24.69l0.96,-20.027l-23.592,-4.663Z" style="fill:#a35111;"/><path d="M75.135,264.911l-27.823,-1.961l15.97,-10.97l11.853,12.931Z" style="fill:#150e1a;"/><path d="M44.141,269.192l15.911,19.066l11.912,-17.105l-27.823,-1.961Z" style="fill:#3c1023;"/><path d="M77.415,273.237l18.402,7.781l-12.855,-15.747l-5.547,7.966Z" style="fill:#940b0d;"/><path d="M74.998,273.247l4.689,31.127l13.713,-23.346l-18.402,-7.781Z" style="fill:#150e1a;"/><path d="M67.856,282.855l7.837,0.629l-1.472,-9.769l-6.365,9.14Z" style="fill:#45374a;"/><path d="M46.179,313.321l2.607,7.416l8.33,-5.311l-10.937,-2.105Z" style="fill:#45374a;"/><path d="M26.086,293.472l-7.13,13.779l13.978,-9.918l-6.848,-3.861Z" style="fill:#150e1a;"/><path d="M120.035,386.534l10.927,-11.015l-16.306,5.282l5.379,5.733Z" style="fill:#150e1a;"/><path d="M84.958,362.096l10.926,-11.015l-16.306,5.282l5.38,5.733Z" style="fill:#150e1a;"/><path d="M56.947,306.647l11.74,6.488l-3.218,-21.359l-8.522,14.871Z" style="fill:#680e1a;"/><path d="M78.361,381.04l13.407,-0.412l-13.668,-16.726l0.261,17.138Z" style="fill:#680e1a;"/><path d="M63.875,200.376l18.658,-7.145l-20.18,-2.442l1.522,9.587Z" style="fill:#940b0d;"/></g></g></svg>